<svg width="38" height="38" viewBox="0 0 38 38" fill="none" xmlns="http://www.w3.org/2000/svg">
<path d="M19 6.33325V7.91659M28.5 25.3333H31.6667M22.1667 25.3333H19V31.6666M19 14.2499V18.9999M19 18.9999H19.0159M19 18.9999H25.3492M25.3334 31.6666H31.6667M6.33337 18.9999H12.6667M31.6667 18.9999H31.6825M7.91671 12.6666H11.0834C11.5033 12.6666 11.906 12.4998 12.203 12.2028C12.4999 11.9059 12.6667 11.5032 12.6667 11.0833V7.91659C12.6667 7.49666 12.4999 7.09393 12.203 6.797C11.906 6.50007 11.5033 6.33325 11.0834 6.33325H7.91671C7.49678 6.33325 7.09405 6.50007 6.79712 6.797C6.50019 7.09393 6.33337 7.49666 6.33337 7.91659V11.0833C6.33337 11.5032 6.50019 11.9059 6.79712 12.2028C7.09405 12.4998 7.49678 12.6666 7.91671 12.6666ZM26.9167 12.6666H30.0834C30.5033 12.6666 30.906 12.4998 31.203 12.2028C31.4999 11.9059 31.6667 11.5032 31.6667 11.0833V7.91659C31.6667 7.49666 31.4999 7.09393 31.203 6.797C30.906 6.50007 30.5033 6.33325 30.0834 6.33325H26.9167C26.4968 6.33325 26.0941 6.50007 25.7971 6.797C25.5002 7.09393 25.3334 7.49666 25.3334 7.91659V11.0833C25.3334 11.5032 25.5002 11.9059 25.7971 12.2028C26.0941 12.4998 26.4968 12.6666 26.9167 12.6666ZM7.91671 31.6666H11.0834C11.5033 31.6666 11.906 31.4998 12.203 31.2028C12.4999 30.9059 12.6667 30.5032 12.6667 30.0833V26.9166C12.6667 26.4967 12.4999 26.0939 12.203 25.797C11.906 25.5001 11.5033 25.3333 11.0834 25.3333H7.91671C7.49678 25.3333 7.09405 25.5001 6.79712 25.797C6.50019 26.0939 6.33337 26.4967 6.33337 26.9166V30.0833C6.33337 30.5032 6.50019 30.9059 6.79712 31.2028C7.09405 31.4998 7.49678 31.6666 7.91671 31.6666Z" stroke="white" stroke-width="3.16667" stroke-linecap="round" stroke-linejoin="round"/>
</svg>
